ffmpeg started on 2026-01-16 at 15:58:15
Report written to "D:\Convert\FFMetrics\reports\psnr_report-6.txt"
Log level: 32
Command line:
ffmpeg -hide_banner -nostdin -r 24000/1001 -i "F:\\Convert\\files\\[DC] Make Heroine ga Oosugiru - 07_Telegram_HEVC(144).mkv" -r 24000/1001 -i "F:\\Convert\\files\\[DC] Make Heroine ga Oosugiru - 07_Telegram.mp4" -lavfi "[0:v]settb=AVTB,setpts=PTS-STARTPTS,format=pix_fmts=yuv420p10le,fps=24000/1001,scale=1920:1080:flags=lanczos:param0=3:out_range=limited:out_color_matrix=bt709:out_chroma_loc=left,setsar=1/1,setdar=(1920/1080)*(1/1),colorspace=format=yuv420p10:range=tv:primaries=bt709:trc=bt709:space=bt709:fast=0[main];[1:v]settb=AVTB,setpts=PTS-STARTPTS,format=pix_fmts=yuv420p,fps=24000/1001,scale=1920:1080:flags=lanczos:param0=3:out_range=limited:out_color_matrix=bt709:out_chroma_loc=left,setsar=1.000,setdar=1.778,colorspace=format=yuv420p:range=tv:primaries=bt709:trc=bt709:space=bt709:fast=0[ref];[main][ref]psnr=eof_action=endall:stats_file='D\\:/Convert/FFMetrics/logs/psnr_logfile-6.txt'" -f null -
Input #0, matroska,webm, from 'F:\Convert\files\[DC] Make Heroine ga Oosugiru - 07_Telegram_HEVC(144).mkv':
  Metadata:
    COMPATIBLE_BRANDS: isomiso2avc1mp41
    MAJOR_BRAND     : isom
    MINOR_VERSION   : 512
    ENCODER         : Lavf61.7.100
  Duration: 00:24:06.79, start: -0.021000, bitrate: 970 kb/s
  Stream #0:0: Video: hevc (Main 10), yuv420p10le(tv, bt709, progressive), 1920x1080 [SAR 1:1 DAR 16:9], 23.98 fps, 23.98 tbr, 1k tbn (default)
      Metadata:
        HANDLER_NAME    : VideoHandler
        VENDOR_ID       : [0][0][0][0]
        ENCODER         : Lavc61.19.100 libx265
        BPS             : 773021
        DURATION        : 00:24:06.569708333
        NUMBER_OF_FRAMES: 34683
        NUMBER_OF_BYTES : 139778683
        _STATISTICS_WRITING_APP: mkvpropedit v94.0 ('Initiate') 64-bit
        _STATISTICS_WRITING_DATE_UTC: 2026-01-16 12:25:17
        _STATISTICS_TAGS: BPS DURATION NUMBER_OF_FRAMES NUMBER_OF_BYTES
  Stream #0:1: Audio: aac (LC), 48000 Hz, stereo, fltp (default)
      Metadata:
        HANDLER_NAME    : SoundHandler
        VENDOR_ID       : [0][0][0][0]
        ENCODER         : Lavc61.19.100 aac
        BPS             : 193194
        DURATION        : 00:24:06.784000000
        NUMBER_OF_FRAMES: 67819
        NUMBER_OF_BYTES : 34938755
        _STATISTICS_WRITING_APP: mkvpropedit v94.0 ('Initiate') 64-bit
        _STATISTICS_WRITING_DATE_UTC: 2026-01-16 12:25:17
        _STATISTICS_TAGS: BPS DURATION NUMBER_OF_FRAMES NUMBER_OF_BYTES
Input #1, mov,mp4,m4a,3gp,3g2,mj2, from 'F:\Convert\files\[DC] Make Heroine ga Oosugiru - 07_Telegram.mp4':
  Metadata:
    major_brand     : isom
    minor_version   : 512
    compatible_brands: isomiso2avc1mp41
    encoder         : Lavf60.16.100
  Duration: 00:24:06.74, start: 0.000000, bitrate: 3764 kb/s
  Stream #1:0[0x1](und): Video: h264 (High) (avc1 / 0x31637661), yuv420p(tv, bt709, progressive), 1920x1080 [SAR 1:1 DAR 16:9], 3616 kb/s, 23.98 fps, 23.98 tbr, 24k tbn (default)
      Metadata:
        handler_name    : VideoHandler
        vendor_id       : [0][0][0][0]
        encoder         : Lavc60.31.102 h264_qsv
  Stream #1:1[0x2](und): Audio: aac (HE-AACv2) (mp4a / 0x6134706D), 48000 Hz, stereo, fltp, 144 kb/s (default)
      Metadata:
        handler_name    : SoundHandler
        vendor_id       : [0][0][0][0]
Stream mapping:
  Stream #0:0 (hevc) -> settb:default
  Stream #1:0 (h264) -> settb:default
  psnr:default -> Stream #0:0 (wrapped_avframe)
  Stream #0:1 -> #0:1 (aac (native) -> pcm_s16le (native))
Output #0, null, to 'pipe:':
  Metadata:
    COMPATIBLE_BRANDS: isomiso2avc1mp41
    MAJOR_BRAND     : isom
    MINOR_VERSION   : 512
    encoder         : Lavf61.7.100
  Stream #0:0: Video: wrapped_avframe, yuv420p10le(tv, bt709, progressive), 1920x1080 [SAR 1:1 DAR 16:9], q=2-31, 200 kb/s, 23.98 fps, 23.98 tbn
      Metadata:
        encoder         : Lavc61.19.100 wrapped_avframe
  Stream #0:1: Audio: pcm_s16le, 48000 Hz, stereo, s16, 1536 kb/s (default)
      Metadata:
        HANDLER_NAME    : SoundHandler
        VENDOR_ID       : [0][0][0][0]
        _STATISTICS_TAGS: BPS DURATION NUMBER_OF_FRAMES NUMBER_OF_BYTES
        BPS             : 193194
        DURATION        : 00:24:06.784000000
        NUMBER_OF_FRAMES: 67819
        NUMBER_OF_BYTES : 34938755
        _STATISTICS_WRITING_APP: mkvpropedit v94.0 ('Initiate') 64-bit
        _STATISTICS_WRITING_DATE_UTC: 2026-01-16 12:25:17
        encoder         : Lavc61.19.100 pcm_s16le
frame=  124 fps=0.0 q=-0.0 size=N/A time=00:00:05.17 bitrate=N/A speed=10.1x    frame=  321 fps=308 q=-0.0 size=N/A time=00:00:13.38 bitrate=N/A speed=12.9x    frame=  519 fps=334 q=-0.0 size=N/A time=00:00:21.64 bitrate=N/A speed=13.9x    frame=  706 fps=342 q=-0.0 size=N/A time=00:00:29.44 bitrate=N/A speed=14.3x    frame=  891 fps=346 q=-0.0 size=N/A time=00:00:37.16 bitrate=N/A speed=14.4x    frame= 1036 fps=334 q=-0.0 size=N/A time=00:00:43.20 bitrate=N/A speed=13.9x    frame= 1202 fps=333 q=-0.0 size=N/A time=00:00:50.13 bitrate=N/A speed=13.9x    frame= 1367 fps=331 q=-0.0 size=N/A time=00:00:57.01 bitrate=N/A speed=13.8x    frame= 1527 fps=329 q=-0.0 size=N/A time=00:01:03.68 bitrate=N/A speed=13.7x    frame= 1674 fps=324 q=-0.0 size=N/A time=00:01:09.81 bitrate=N/A speed=13.5x    frame= 1847 fps=325 q=-0.0 size=N/A time=00:01:17.03 bitrate=N/A speed=13.6x    frame= 2018 fps=326 q=-0.0 size=N/A time=00:01:24.16 bitrate=N/A speed=13.6x    frame= 2122 fps=317 q=-0.0 size=N/A time=00:01:28.50 bitrate=N/A speed=13.2x    frame= 2276 fps=315 q=-0.0 size=N/A time=00:01:34.92 bitrate=N/A speed=13.1x    frame= 2414 fps=312 q=-0.0 size=N/A time=00:01:40.68 bitrate=N/A speed=  13x    frame= 2548 fps=309 q=-0.0 size=N/A time=00:01:46.27 bitrate=N/A speed=12.9x    frame= 2713 fps=310 q=-0.0 size=N/A time=00:01:53.15 bitrate=N/A speed=12.9x    frame= 2895 fps=312 q=-0.0 size=N/A time=00:02:00.74 bitrate=N/A speed=  13x    frame= 3077 fps=314 q=-0.0 size=N/A time=00:02:08.33 bitrate=N/A speed=13.1x    frame= 3267 fps=317 q=-0.0 size=N/A time=00:02:16.26 bitrate=N/A speed=13.2x    frame= 3470 fps=320 q=-0.0 size=N/A time=00:02:24.72 bitrate=N/A speed=13.4x    frame= 3673 fps=324 q=-0.0 size=N/A time=00:02:33.19 bitrate=N/A speed=13.5x    frame= 3869 fps=326 q=-0.0 size=N/A time=00:02:41.36 bitrate=N/A speed=13.6x    frame= 4073 fps=329 q=-0.0 size=N/A time=00:02:49.87 bitrate=N/A speed=13.7x    frame= 4265 fps=331 q=-0.0 size=N/A time=00:02:57.88 bitrate=N/A speed=13.8x    frame= 4460 fps=333 q=-0.0 size=N/A time=00:03:06.01 bitrate=N/A speed=13.9x    frame= 4664 fps=335 q=-0.0 size=N/A time=00:03:14.52 bitrate=N/A speed=  14x    frame= 4854 fps=336 q=-0.0 size=N/A time=00:03:22.45 bitrate=N/A speed=  14x    frame= 5055 fps=338 q=-0.0 size=N/A time=00:03:30.83 bitrate=N/A speed=14.1x    frame= 5250 fps=339 q=-0.0 size=N/A time=00:03:38.96 bitrate=N/A speed=14.1x    frame= 5445 fps=341 q=-0.0 size=N/A time=00:03:47.10 bitrate=N/A speed=14.2x    frame= 5637 fps=342 q=-0.0 size=N/A time=00:03:55.10 bitrate=N/A speed=14.2x    frame= 5832 fps=343 q=-0.0 size=N/A time=00:04:03.24 bitrate=N/A speed=14.3x    frame= 6026 fps=344 q=-0.0 size=N/A time=00:04:11.33 bitrate=N/A speed=14.3x    frame= 6224 fps=345 q=-0.0 size=N/A time=00:04:19.59 bitrate=N/A speed=14.4x    frame= 6412 fps=345 q=-0.0 size=N/A time=00:04:27.43 bitrate=N/A speed=14.4x    frame= 6609 fps=346 q=-0.0 size=N/A time=00:04:35.65 bitrate=N/A speed=14.4x    frame= 6805 fps=347 q=-0.0 size=N/A time=00:04:43.82 bitrate=N/A speed=14.5x    frame= 6998 fps=348 q=-0.0 size=N/A time=00:04:51.87 bitrate=N/A speed=14.5x    frame= 7191 fps=349 q=-0.0 size=N/A time=00:04:59.92 bitrate=N/A speed=14.5x    frame= 7375 fps=349 q=-0.0 size=N/A time=00:05:07.59 bitrate=N/A speed=14.5x    frame= 7561 fps=349 q=-0.0 size=N/A time=00:05:15.35 bitrate=N/A speed=14.6x    frame= 7750 fps=349 q=-0.0 size=N/A time=00:05:23.23 bitrate=N/A speed=14.6x    frame= 7923 fps=349 q=-0.0 size=N/A time=00:05:30.45 bitrate=N/A speed=14.6x    frame= 8102 fps=349 q=-0.0 size=N/A time=00:05:37.92 bitrate=N/A speed=14.6x    frame= 8284 fps=349 q=-0.0 size=N/A time=00:05:45.51 bitrate=N/A speed=14.6x    frame= 8475 fps=350 q=-0.0 size=N/A time=00:05:53.47 bitrate=N/A speed=14.6x    frame= 8672 fps=350 q=-0.0 size=N/A time=00:06:01.69 bitrate=N/A speed=14.6x    frame= 8873 fps=351 q=-0.0 size=N/A time=00:06:10.07 bitrate=N/A speed=14.6x    frame= 9066 fps=352 q=-0.0 size=N/A time=00:06:18.12 bitrate=N/A speed=14.7x    frame= 9266 fps=352 q=-0.0 size=N/A time=00:06:26.46 bitrate=N/A speed=14.7x    frame= 9454 fps=353 q=-0.0 size=N/A time=00:06:34.31 bitrate=N/A speed=14.7x    frame= 9649 fps=353 q=-0.0 size=N/A time=00:06:42.44 bitrate=N/A speed=14.7x    frame= 9838 fps=353 q=-0.0 size=N/A time=00:06:50.32 bitrate=N/A speed=14.7x    frame=10031 fps=354 q=-0.0 size=N/A time=00:06:58.37 bitrate=N/A speed=14.7x    frame=10221 fps=354 q=-0.0 size=N/A time=00:07:06.30 bitrate=N/A speed=14.8x    frame=10423 fps=355 q=-0.0 size=N/A time=00:07:14.72 bitrate=N/A speed=14.8x    frame=10610 fps=355 q=-0.0 size=N/A time=00:07:22.52 bitrate=N/A speed=14.8x    frame=10796 fps=355 q=-0.0 size=N/A time=00:07:30.28 bitrate=N/A speed=14.8x    frame=10987 fps=355 q=-0.0 size=N/A time=00:07:38.24 bitrate=N/A speed=14.8x    frame=11185 fps=356 q=-0.0 size=N/A time=00:07:46.50 bitrate=N/A speed=14.8x    frame=11372 fps=356 q=-0.0 size=N/A time=00:07:54.30 bitrate=N/A speed=14.8x    frame=11567 fps=356 q=-0.0 size=N/A time=00:08:02.44 bitrate=N/A speed=14.9x    frame=11767 fps=356 q=-0.0 size=N/A time=00:08:10.78 bitrate=N/A speed=14.9x    frame=11964 fps=357 q=-0.0 size=N/A time=00:08:18.99 bitrate=N/A speed=14.9x    frame=12156 fps=357 q=-0.0 size=N/A time=00:08:27.00 bitrate=N/A speed=14.9x    frame=12350 fps=357 q=-0.0 size=N/A time=00:08:35.09 bitrate=N/A speed=14.9x    frame=12558 fps=358 q=-0.0 size=N/A time=00:08:43.77 bitrate=N/A speed=14.9x    frame=12753 fps=358 q=-0.0 size=N/A time=00:08:51.90 bitrate=N/A speed=14.9x    frame=12948 fps=359 q=-0.0 size=N/A time=00:09:00.03 bitrate=N/A speed=  15x    frame=13142 fps=359 q=-0.0 size=N/A time=00:09:08.13 bitrate=N/A speed=  15x    frame=13335 fps=359 q=-0.0 size=N/A time=00:09:16.18 bitrate=N/A speed=  15x    frame=13524 fps=359 q=-0.0 size=N/A time=00:09:24.06 bitrate=N/A speed=  15x    frame=13725 fps=360 q=-0.0 size=N/A time=00:09:32.44 bitrate=N/A speed=  15x    frame=13915 fps=360 q=-0.0 size=N/A time=00:09:40.37 bitrate=N/A speed=  15x    frame=14097 fps=360 q=-0.0 size=N/A time=00:09:47.96 bitrate=N/A speed=  15x    frame=14290 fps=360 q=-0.0 size=N/A time=00:09:56.01 bitrate=N/A speed=  15x    frame=14490 fps=360 q=-0.0 size=N/A time=00:10:04.35 bitrate=N/A speed=  15x    frame=14674 fps=360 q=-0.0 size=N/A time=00:10:12.02 bitrate=N/A speed=  15x    frame=14866 fps=360 q=-0.0 size=N/A time=00:10:20.03 bitrate=N/A speed=  15x    frame=15060 fps=360 q=-0.0 size=N/A time=00:10:28.12 bitrate=N/A speed=  15x    frame=15223 fps=360 q=-0.0 size=N/A time=00:10:34.92 bitrate=N/A speed=  15x    frame=15406 fps=360 q=-0.0 size=N/A time=00:10:42.55 bitrate=N/A speed=  15x    frame=15598 fps=360 q=-0.0 size=N/A time=00:10:50.56 bitrate=N/A speed=  15x    frame=15799 fps=360 q=-0.0 size=N/A time=00:10:58.94 bitrate=N/A speed=  15x    frame=15988 fps=360 q=-0.0 size=N/A time=00:11:06.83 bitrate=N/A speed=  15x    frame=16174 fps=360 q=-0.0 size=N/A time=00:11:14.59 bitrate=N/A speed=  15x    frame=16366 fps=360 q=-0.0 size=N/A time=00:11:22.59 bitrate=N/A speed=  15x    frame=16559 fps=361 q=-0.0 size=N/A time=00:11:30.64 bitrate=N/A speed=  15x    frame=16746 fps=361 q=-0.0 size=N/A time=00:11:38.44 bitrate=N/A speed=  15x    frame=16951 fps=361 q=-0.0 size=N/A time=00:11:46.99 bitrate=N/A speed=15.1x    frame=17148 fps=361 q=-0.0 size=N/A time=00:11:55.21 bitrate=N/A speed=15.1x    frame=17355 fps=362 q=-0.0 size=N/A time=00:12:03.84 bitrate=N/A speed=15.1x    frame=17549 fps=362 q=-0.0 size=N/A time=00:12:11.93 bitrate=N/A speed=15.1x    frame=17741 fps=362 q=-0.0 size=N/A time=00:12:19.94 bitrate=N/A speed=15.1x    frame=17940 fps=362 q=-0.0 size=N/A time=00:12:28.24 bitrate=N/A speed=15.1x    frame=18134 fps=362 q=-0.0 size=N/A time=00:12:36.33 bitrate=N/A speed=15.1x    frame=18318 fps=362 q=-0.0 size=N/A time=00:12:44.01 bitrate=N/A speed=15.1x    frame=18512 fps=362 q=-0.0 size=N/A time=00:12:52.10 bitrate=N/A speed=15.1x    frame=18724 fps=363 q=-0.0 size=N/A time=00:13:00.94 bitrate=N/A speed=15.1x    frame=18935 fps=363 q=-0.0 size=N/A time=00:13:09.74 bitrate=N/A speed=15.1x    frame=19137 fps=364 q=-0.0 size=N/A time=00:13:18.17 bitrate=N/A speed=15.2x    frame=19347 fps=364 q=-0.0 size=N/A time=00:13:26.93 bitrate=N/A speed=15.2x    frame=19553 fps=364 q=-0.0 size=N/A time=00:13:35.52 bitrate=N/A speed=15.2x    frame=19744 fps=364 q=-0.0 size=N/A time=00:13:43.48 bitrate=N/A speed=15.2x    frame=19954 fps=365 q=-0.0 size=N/A time=00:13:52.24 bitrate=N/A speed=15.2x    frame=20171 fps=365 q=-0.0 size=N/A time=00:14:01.29 bitrate=N/A speed=15.2x    frame=20368 fps=365 q=-0.0 size=N/A time=00:14:09.51 bitrate=N/A speed=15.2x    frame=20566 fps=366 q=-0.0 size=N/A time=00:14:17.77 bitrate=N/A speed=15.2x    frame=20767 fps=366 q=-0.0 size=N/A time=00:14:26.15 bitrate=N/A speed=15.3x    frame=20968 fps=366 q=-0.0 size=N/A time=00:14:34.54 bitrate=N/A speed=15.3x    frame=21182 fps=366 q=-0.0 size=N/A time=00:14:43.46 bitrate=N/A speed=15.3x    frame=21382 fps=367 q=-0.0 size=N/A time=00:14:51.80 bitrate=N/A speed=15.3x    frame=21589 fps=367 q=-0.0 size=N/A time=00:15:00.44 bitrate=N/A speed=15.3x    frame=21799 fps=367 q=-0.0 size=N/A time=00:15:09.19 bitrate=N/A speed=15.3x    frame=22014 fps=368 q=-0.0 size=N/A time=00:15:18.16 bitrate=N/A speed=15.3x    frame=22217 fps=368 q=-0.0 size=N/A time=00:15:26.63 bitrate=N/A speed=15.3x    frame=22426 fps=368 q=-0.0 size=N/A time=00:15:35.35 bitrate=N/A speed=15.4x    frame=22633 fps=369 q=-0.0 size=N/A time=00:15:43.98 bitrate=N/A speed=15.4x    frame=22824 fps=369 q=-0.0 size=N/A time=00:15:51.95 bitrate=N/A speed=15.4x    frame=23033 fps=369 q=-0.0 size=N/A time=00:16:00.66 bitrate=N/A speed=15.4x    frame=23243 fps=369 q=-0.0 size=N/A time=00:16:09.42 bitrate=N/A speed=15.4x    frame=23457 fps=369 q=-0.0 size=N/A time=00:16:18.35 bitrate=N/A speed=15.4x    frame=23667 fps=370 q=-0.0 size=N/A time=00:16:27.11 bitrate=N/A speed=15.4x    frame=23875 fps=370 q=-0.0 size=N/A time=00:16:35.78 bitrate=N/A speed=15.4x    frame=24083 fps=370 q=-0.0 size=N/A time=00:16:44.46 bitrate=N/A speed=15.4x    frame=24282 fps=370 q=-0.0 size=N/A time=00:16:52.76 bitrate=N/A speed=15.4x    frame=24491 fps=371 q=-0.0 size=N/A time=00:17:01.47 bitrate=N/A speed=15.5x    frame=24704 fps=371 q=-0.0 size=N/A time=00:17:10.36 bitrate=N/A speed=15.5x    frame=24914 fps=371 q=-0.0 size=N/A time=00:17:19.12 bitrate=N/A speed=15.5x    frame=25123 fps=372 q=-0.0 size=N/A time=00:17:27.83 bitrate=N/A speed=15.5x    frame=25335 fps=372 q=-0.0 size=N/A time=00:17:36.68 bitrate=N/A speed=15.5x    frame=25537 fps=372 q=-0.0 size=N/A time=00:17:45.10 bitrate=N/A speed=15.5x    frame=25749 fps=372 q=-0.0 size=N/A time=00:17:53.94 bitrate=N/A speed=15.5x    frame=25952 fps=372 q=-0.0 size=N/A time=00:18:02.41 bitrate=N/A speed=15.5x    frame=26158 fps=373 q=-0.0 size=N/A time=00:18:11.00 bitrate=N/A speed=15.5x    frame=26365 fps=373 q=-0.0 size=N/A time=00:18:19.64 bitrate=N/A speed=15.6x    frame=26579 fps=373 q=-0.0 size=N/A time=00:18:28.56 bitrate=N/A speed=15.6x    frame=26790 fps=373 q=-0.0 size=N/A time=00:18:37.36 bitrate=N/A speed=15.6x    frame=26984 fps=373 q=-0.0 size=N/A time=00:18:45.45 bitrate=N/A speed=15.6x    frame=27174 fps=373 q=-0.0 size=N/A time=00:18:53.38 bitrate=N/A speed=15.6x    frame=27368 fps=373 q=-0.0 size=N/A time=00:19:01.47 bitrate=N/A speed=15.6x    frame=27562 fps=373 q=-0.0 size=N/A time=00:19:09.56 bitrate=N/A speed=15.6x    frame=27758 fps=374 q=-0.0 size=N/A time=00:19:17.73 bitrate=N/A speed=15.6x    frame=27953 fps=374 q=-0.0 size=N/A time=00:19:25.87 bitrate=N/A speed=15.6x    frame=28159 fps=374 q=-0.0 size=N/A time=00:19:34.46 bitrate=N/A speed=15.6x    frame=28355 fps=374 q=-0.0 size=N/A time=00:19:42.63 bitrate=N/A speed=15.6x    frame=28549 fps=374 q=-0.0 size=N/A time=00:19:50.73 bitrate=N/A speed=15.6x    frame=28741 fps=374 q=-0.0 size=N/A time=00:19:58.73 bitrate=N/A speed=15.6x    frame=28928 fps=374 q=-0.0 size=N/A time=00:20:06.53 bitrate=N/A speed=15.6x    frame=29102 fps=373 q=-0.0 size=N/A time=00:20:13.79 bitrate=N/A speed=15.6x    frame=29295 fps=373 q=-0.0 size=N/A time=00:20:21.84 bitrate=N/A speed=15.6x    frame=29480 fps=373 q=-0.0 size=N/A time=00:20:29.60 bitrate=N/A speed=15.6x    frame=29671 fps=373 q=-0.0 size=N/A time=00:20:37.52 bitrate=N/A speed=15.6x    frame=29848 fps=373 q=-0.0 size=N/A time=00:20:44.91 bitrate=N/A speed=15.6x    frame=30016 fps=373 q=-0.0 size=N/A time=00:20:51.91 bitrate=N/A speed=15.6x    frame=30200 fps=373 q=-0.0 size=N/A time=00:20:59.59 bitrate=N/A speed=15.5x    frame=30399 fps=373 q=-0.0 size=N/A time=00:21:07.89 bitrate=N/A speed=15.5x    frame=30600 fps=373 q=-0.0 size=N/A time=00:21:16.27 bitrate=N/A speed=15.6x    frame=30789 fps=373 q=-0.0 size=N/A time=00:21:24.15 bitrate=N/A speed=15.6x    frame=30990 fps=373 q=-0.0 size=N/A time=00:21:32.54 bitrate=N/A speed=15.6x    frame=31190 fps=373 q=-0.0 size=N/A time=00:21:40.88 bitrate=N/A speed=15.6x    frame=31372 fps=373 q=-0.0 size=N/A time=00:21:48.47 bitrate=N/A speed=15.6x    frame=31559 fps=373 q=-0.0 size=N/A time=00:21:56.27 bitrate=N/A speed=15.6x    frame=31747 fps=373 q=-0.0 size=N/A time=00:22:04.11 bitrate=N/A speed=15.6x    frame=31925 fps=373 q=-0.0 size=N/A time=00:22:11.53 bitrate=N/A speed=15.5x    frame=32111 fps=373 q=-0.0 size=N/A time=00:22:19.29 bitrate=N/A speed=15.5x    frame=32305 fps=373 q=-0.0 size=N/A time=00:22:27.38 bitrate=N/A speed=15.5x    frame=32501 fps=373 q=-0.0 size=N/A time=00:22:35.56 bitrate=N/A speed=15.5x    frame=32661 fps=372 q=-0.0 size=N/A time=00:22:42.23 bitrate=N/A speed=15.5x    frame=32809 fps=372 q=-0.0 size=N/A time=00:22:48.40 bitrate=N/A speed=15.5x    frame=32985 fps=372 q=-0.0 size=N/A time=00:22:55.74 bitrate=N/A speed=15.5x    frame=33172 fps=372 q=-0.0 size=N/A time=00:23:03.54 bitrate=N/A speed=15.5x    frame=33345 fps=371 q=-0.0 size=N/A time=00:23:10.76 bitrate=N/A speed=15.5x    frame=33508 fps=371 q=-0.0 size=N/A time=00:23:17.56 bitrate=N/A speed=15.5x    frame=33654 fps=371 q=-0.0 size=N/A time=00:23:23.65 bitrate=N/A speed=15.5x    frame=33794 fps=370 q=-0.0 size=N/A time=00:23:29.49 bitrate=N/A speed=15.4x    frame=33914 fps=369 q=-0.0 size=N/A time=00:23:34.49 bitrate=N/A speed=15.4x    frame=34084 fps=369 q=-0.0 size=N/A time=00:23:41.58 bitrate=N/A speed=15.4x    frame=34248 fps=369 q=-0.0 size=N/A time=00:23:48.42 bitrate=N/A speed=15.4x    frame=34379 fps=368 q=-0.0 size=N/A time=00:23:53.89 bitrate=N/A speed=15.4x    frame=34530 fps=368 q=-0.0 size=N/A time=00:24:00.18 bitrate=N/A speed=15.3x    [Parsed_psnr_16 @ 00000215dc198dc0] PSNR y:48.991759 u:50.355169 v:50.401158 average:49.406570 min:37.979530 max:inf
[out#0/null @ 00000215cecdc140] video:14903KiB audio:271276KiB subtitle:0KiB other streams:0KiB global headers:0KiB muxing overhead: unknown
frame=34683 fps=368 q=-0.0 Lsize=N/A time=00:24:06.57 bitrate=N/A speed=15.3x    
